<svg xmlns="http://www.w3.org/2000/svg" viewBox="0 0 32 40" x="0px" y="0px"><g data-name="Layer 17"><path d="M16,1.96A14.02933,14.02933,0,0,0,7.27,26.98a.83368.83368,0,0,0,.16.12,13.96066,13.96066,0,0,0,17.14,0,.83368.83368,0,0,0,.16-.12A14.02933,14.02933,0,0,0,16,1.96Zm8.59,23.16A8.771,8.771,0,0,0,16,18.97a8.771,8.771,0,0,0-8.59,6.15,12.54,12.54,0,1,1,17.18006,0ZM20.91,11.79A4.91,4.91,0,1,1,16,6.89,4.91218,4.91218,0,0,1,20.91,11.79Z"/></g><text x="0" y="47" fill="#000000" font-size="5px" font-weight="bold" font-family="'Helvetica Neue', Helvetica, Arial-Unicode, Arial, Sans-serif">Created by The Icon Z</text><text x="0" y="52" fill="#000000" font-size="5px" font-weight="bold" font-family="'Helvetica Neue', Helvetica, Arial-Unicode, Arial, Sans-serif">from the Noun Project</text></svg>