<svg xmlns="http://www.w3.org/2000/svg" data-name="Layer 1" viewBox="-5.0 -10.0 110.0 135.0" x="0px" y="0px"><defs><style>.cls-1{fill-rule:evenodd;}</style></defs><title>a</title><path class="cls-1" d="M90.849,46.312H85.322V92.118a2.1,2.1,0,0,1-2.095,2.095H61.891a2.1,2.1,0,0,1-2.1-2.095V69.661a9.8,9.8,0,0,0-19.59,0V92.118a2.1,2.1,0,0,1-2.1,2.095H16.773a2.1,2.1,0,0,1-2.095-2.095V46.312H9.151A4.154,4.154,0,0,1,6.563,38.92l39.8-31.837a5.76,5.76,0,0,1,7.282,0l39.8,31.837A4.154,4.154,0,0,1,90.849,46.312Z"/><text x="0.0" y="117.5" font-size="5.0" font-weight="bold" font-family="Arbeit Regular, Helvetica, Arial-Unicode, Arial, Sans-serif" fill="#000000">Created by Topicons07</text><text x="0.0" y="122.5" font-size="5.0" font-weight="bold" font-family="Arbeit Regular, Helvetica, Arial-Unicode, Arial, Sans-serif" fill="#000000">from Noun Project</text></svg>